<svg xmlns="http://www.w3.org/2000/svg" xmlns:xlink="http://www.w3.org/1999/xlink" viewBox="0 0 564.81 405.88"><defs><style>.cls-1{fill:url(#linear-gradient);}</style><linearGradient id="linear-gradient" x1="55.92" y1="322.67" x2="455.51" y2="90.54" gradientUnits="userSpaceOnUse"><stop offset="0" stop-color="#fff"/><stop offset="0.74" stop-color="#00aeef"/></linearGradient></defs><g id="Layer_2" data-name="Layer 2"><g id="Layer_1-2" data-name="Layer 1"><path class="cls-1" d="M8.46,1.06C7.15,2.84-4.24,18.71,1.71,36.51,6.83,51.78,21.19,58,23.65,59c7.72,3.32,20.82,2.73,46.7,1.41,10.6-.54,17.13-1.15,25.6,2,3.78,1.38,11.8,4.45,17.16,12.09,2.92,4.17,1.94,5.25,6.75,18.57,3.3,9.13,5,13.78,8.16,17.72a31.38,31.38,0,0,0,13.78,10.41c5.44,1.95,6.64.36,15.47,1.41,7.57.89,16.24,1.92,22.79,7.87,5.46,5,7.14,11.28,7.88,14.07.8,3,1.79,8.48-2.54,29.53-2.83,13.83-4.24,16.26-2.81,21.38,2.63,9.4,11,14.34,11.54,14.63,9.5,5.41,15.67-.15,33.19,1.41,9.73.86,19.38,1.72,26.72,8.44,8.08,7.38,11.6,20.23,9.57,31.22-3.3,17.82-18.7,17.37-30.1,43-7.47,16.81-5,26.42-3.94,29.82a35.57,35.57,0,0,0,7.88,12.94c8,8.67,14.44,6.7,20.53,12.66,13.94,13.62,3.75,31.9,16.88,42.76,6.91,5.71,16,5.8,25.32,5.9,11.49.13,20.51-3.1,28.13-5.9,11.44-4.21,11.65-6.43,21.94-10.13a83,83,0,0,1,66.39,3.38c10.5,5,10.51,7.62,23.06,13.22,10.51,4.68,16.36,7.3,24.48,7,13.09-.43,23.59-8.08,27.57-11,5.95-4.33,7.37-7.09,14.62-11.25a64.63,64.63,0,0,1,14.91-6.19c21.28-6.18,37.1,5.64,42.2-.85,1.83-2.32.9-5.16,0-10.69-.79-4.82,0-2.12,0-36.57,0-23.38-.39-60.68-.56-84.67-.36-49.17.55-69.64.56-122.37V18.5c.73-10.75,2.59-15.06,0-17.44-2.06-1.89-4.89-.85-12.94,0-5.32.56-10.69,0-16,0H8.46Z"/></g></g></svg>